<svg xmlns="http://www.w3.org/2000/svg" viewBox="0 0 256 256" width="256" height="256" fill="#37474f">
  <path d="M0 0h256v256H0z" fill="none"/>

  <rect width="244" height="244" x="6" y="6" ry="20" fill="#fff"/>

  <path
    d="
      M55.242 106.084c-6.243 2.454-4.738 10.493-6.568 15.691-1.575 8.181-.11 17.338-1.822 24.983-5.9 2.26-14.873.11-18.461 6.562-2.191 5.561 3.524 11.779 9.267 9.977 3.477-.194 6.65-1.942 10.03-2.18.276 8.277 1.563 16.456 1.988 24.719 4.271.683 12.21 3.53 13.785-2.766.445-7.716-1.681-15.312-1.436-22.968 8.908-1.403 17.932.142 26.88-.633.863-4.853 1.622-13.776-5.36-14.219-7.199.125-14.401.054-21.598.293-.341-12.223-.086-24.677 4.826-36.018-4.308.49-7.29-3.94-11.53-3.441z
      M128.754 43.486c-7.371.39-10.05 8.34-11.54 14.323-5.39 15.945-2.813 31.1-12.758 45.19-3.403 4.397-17.88 19.34-15.919 23.308 4.363 8.83 18.955-4.85 21.952-8.96 1.868 10.736 1.55 26.264 2.324 37.15 2.618 11.517 4.746 23.398 6.878 34.802 4.26 4.682 9.417-2.987 14.198-1.645 4.635-2.2.618-8.666-.226-12.207-1.066-4.475-1.369-6.082-2.393-10.717-1.634-9.971-1.24-19.946-2.193-30.133-1.466-14.292-2.025-28.853-.374-43.154 3.396-12.553 7.591-25.096 9.276-38.072 1.657-4.908-1.904-10.613-7.323-10.092-.538-.062-1.362.178-1.902.207z
      M161.12 54.338c-6.53 2.212-3.98 10.707-4.685 15.978-.107 21.846 2.159 43.596 4.307 65.302 1.077 12.005 2.556 24.06 1.633 36.12.704 5.227-2.796 14.784 4.415 16.172 6.013 2.284 13.6.057 12.532-7.681.302-6.799.813-13.58 2.245-20.241 2.095-10.596 4.593-15.749 7.472-22.495 1.548-3.629 4.347-9.114 7.258-2.893 4.268 9.122 7.361 18.775 8.867 29.406 1.175 8.34-.694 16.663-1.814 24.898 2.129 5.133 8.92.671 12.217 3.751 4.696-1.6 4.005-7.45 5.205-11.36 1.284-5.34.005-10.95.098-16.419-.326-9.827-4.194-19.011-6.753-28.385-1.982-6.4-4.573-12.783-9.53-17.485-3.552-4.14-9.483-6.867-14.773-4.364-6.375 2.232-10.866 7.826-13.814 13.682-1.722-16.89-3.457-33.795-3.885-50.777-.358-6.754-.275-13.696 1.92-20.168-4.51-.061-8.391-3.086-12.916-3.041z
    "
  />
</svg>
