<?xml version="1.0" standalone="no"?>
<!DOCTYPE svg PUBLIC "-//W3C//DTD SVG 20010904//EN"
 "http://www.w3.org/TR/2001/REC-SVG-20010904/DTD/svg10.dtd">
<svg version="1.0" xmlns="http://www.w3.org/2000/svg"
 width="700.000000pt" height="700.000000pt" viewBox="0 0 700.000000 700.000000"
 preserveAspectRatio="xMidYMid meet">
<metadata>
Created by potrace 1.11, written by Peter Selinger 2001-2013
</metadata>
<g transform="translate(0.000000,700.000000) scale(0.100000,-0.100000)"
fill="#000000" stroke="none">
<path d="M3515 5811 c-103 -16 -183 -78 -235 -182 -36 -70 -120 -354 -144
-484 -9 -49 -29 -173 -46 -275 -48 -295 -97 -459 -184 -607 -20 -33 -110 -150
-201 -258 -264 -316 -316 -409 -269 -481 43 -64 125 -71 234 -19 96 47 156 91
261 193 48 46 89 80 92 75 14 -24 39 -392 52 -788 6 -172 10 -197 85 -575 43
-217 86 -439 96 -494 15 -83 22 -101 43 -115 40 -26 97 -18 197 28 52 23 107
41 127 41 49 0 65 8 82 41 22 42 18 85 -15 185 -43 124 -97 373 -115 523 -8
69 -19 225 -25 346 -6 121 -20 333 -32 470 -24 284 -29 784 -9 964 8 72 34
186 86 370 125 449 191 762 183 869 -10 125 -117 195 -263 173z"/>
<path d="M4357 5489 c-15 -12 -38 -40 -50 -63 -21 -39 -22 -54 -25 -344 -4
-413 23 -885 93 -1582 65 -647 75 -856 66 -1310 -6 -269 4 -293 133 -331 130
-39 242 -14 299 67 24 35 28 49 32 149 22 473 84 753 250 1129 63 142 94 186
134 186 37 0 53 -19 99 -120 94 -203 172 -462 213 -705 26 -158 22 -300 -16
-561 -24 -165 -24 -170 -6 -194 26 -36 73 -49 179 -49 64 -1 100 -6 115 -16
20 -13 26 -12 54 5 46 28 67 77 97 229 29 147 31 214 16 474 -12 207 -30 295
-126 615 -81 272 -128 399 -186 502 -37 66 -137 186 -195 234 -52 43 -142 80
-208 84 -153 10 -352 -126 -466 -318 -23 -39 -43 -69 -45 -68 -1 2 -19 172
-38 378 -82 873 -92 1265 -37 1481 17 66 17 69 0 69 -10 0 -75 18 -144 40
-142 45 -197 49 -238 19z"/>
<path d="M1477 4082 c-34 -23 -73 -75 -87 -116 -5 -18 -19 -83 -30 -146 -11
-63 -24 -135 -30 -160 -5 -25 -14 -157 -20 -295 -10 -263 -17 -339 -31 -367
-10 -19 -66 -32 -200 -49 -185 -22 -283 -74 -308 -163 -19 -71 16 -168 76
-212 75 -54 146 -56 330 -8 56 15 109 24 117 21 12 -5 16 -21 16 -63 0 -32 9
-157 20 -278 32 -345 28 -325 53 -331 202 -46 297 -33 339 45 17 31 19 48 13
140 -3 58 -12 164 -20 235 -21 185 -20 281 3 291 9 4 171 9 360 10 188 1 345
4 348 7 13 13 23 154 15 208 -15 89 -44 137 -99 161 -44 20 -57 21 -351 13
l-304 -7 6 234 c9 312 38 501 103 675 13 35 24 68 24 73 0 6 -15 10 -32 10
-18 0 -76 20 -128 45 -104 49 -141 54 -183 27z"/>
</g>
</svg>
